<?xml version="1.0" standalone="no"?>
<!DOCTYPE svg PUBLIC "-//W3C//DTD SVG 20010904//EN"
 "http://www.w3.org/TR/2001/REC-SVG-20010904/DTD/svg10.dtd">
<svg version="1.0" xmlns="http://www.w3.org/2000/svg"
 width="466.000000pt" height="400.000000pt" viewBox="0 0 466.000000 400.000000"
 preserveAspectRatio="xMidYMid meet">

<g transform="translate(0.000000,400.000000) scale(0.100000,-0.100000)"
 stroke="none">
   <style>
        path {
            fill: #FFFFFF;
        }
        dark path {
            fill: white;
        }
    </style>
<path d="M1375 3314 c-413 -91 -705 -453 -705 -874 0 -426 294 -787 711 -875
92 -20 270 -19 367 1 149 30 309 125 410 242 27 31 183 242 346 467 164 226
320 433 348 462 28 29 79 67 112 85 58 31 66 33 166 33 96 0 110 -2 159 -28
155 -82 240 -242 212 -401 -21 -117 -87 -213 -186 -272 -85 -49 -127 -54 -537
-54 l-378 0 0 -480 0 -480 230 0 230 0 0 260 0 260 183 0 c206 0 277 9 394 49
264 91 467 318 534 597 28 119 23 322 -11 429 -96 302 -336 519 -639 581 -112
22 -278 15 -371 -16 -206 -69 -389 -220 -539 -445 l-69 -102 -30 81 c-88 230
-283 408 -517 471 -88 24 -330 29 -420 9z m366 -492 c168 -82 268 -268 240
-443 -47 -288 -349 -446 -609 -318 -202 99 -291 351 -197 556 28 63 112 155
173 190 72 43 119 53 228 50 90 -2 107 -6 165 -35z"/>
<path d="M1430 927 c-13 -7 -31 -24 -39 -38 -13 -24 -13 -29 3 -53 18 -29 19
-29 83 -46 77 -19 80 -80 4 -80 -40 0 -61 14 -61 42 0 13 -8 18 -25 18 -29 0
-31 -10 -10 -50 40 -77 195 -55 195 28 0 37 -24 58 -91 80 -46 15 -54 21 -54
42 0 22 5 25 37 28 29 2 40 -2 50 -17 13 -21 48 -29 48 -12 0 23 -15 43 -41
56 -34 18 -66 19 -99 2z"/>
<path d="M1962 920 c-113 -69 -56 -262 73 -246 61 7 131 96 75 96 -10 0 -25
-10 -31 -22 -16 -30 -28 -38 -60 -38 -47 0 -86 63 -74 121 15 67 98 95 131 44
9 -14 25 -25 35 -25 39 0 12 55 -36 76 -47 19 -74 18 -113 -6z"/>
<path d="M2422 923 c-76 -37 -90 -159 -25 -219 52 -48 140 -40 188 17 33 40
36 123 4 163 -43 54 -106 69 -167 39z m108 -33 c30 -16 45 -79 30 -124 -6 -20
-20 -41 -30 -46 -30 -16 -76 -12 -101 9 -20 16 -24 29 -24 74 0 68 22 97 72
97 19 0 43 -5 53 -10z"/>
<path d="M770 805 c0 -117 1 -125 19 -125 17 0 20 8 23 48 l3 47 57 3 c48 2
61 7 78 29 26 33 25 63 -1 97 -19 24 -26 26 -100 26 l-79 0 0 -125z m146 70
c12 -18 11 -24 -2 -43 -12 -17 -25 -22 -60 -22 l-44 0 0 46 0 45 46 -3 c34 -2
50 -9 60 -23z"/>
<path d="M990 805 l0 -125 89 0 88 0 9 33 c9 31 11 32 64 32 53 0 55 -1 64
-32 7 -26 14 -33 34 -33 19 0 23 4 17 18 -4 9 -25 66 -48 125 -38 101 -42 108
-66 105 -22 -3 -30 -16 -66 -108 l-41 -105 -47 -3 -47 -3 0 110 0 111 -25 0
-25 0 0 -125z m269 38 c8 -21 16 -44 18 -50 4 -9 -7 -13 -35 -13 l-40 0 16 50
c9 28 19 50 22 50 3 0 12 -17 19 -37z"/>
<path d="M1590 916 c0 -10 13 -16 38 -18 l37 -3 3 -107 c2 -100 4 -108 22
-108 19 0 20 7 20 110 l0 110 35 0 c24 0 35 5 35 15 0 12 -17 15 -95 15 -76 0
-95 -3 -95 -14z"/>
<path d="M1820 805 c0 -118 1 -125 20 -125 19 0 20 7 20 125 0 118 -1 125 -20
125 -19 0 -20 -7 -20 -125z"/>
<path d="M2660 806 c0 -119 1 -126 20 -126 18 0 20 8 22 93 l3 92 33 -92 c26
-71 38 -93 52 -93 14 0 26 22 52 93 l33 92 3 -92 c2 -85 4 -93 22 -93 19 0 20
7 20 125 l0 125 -29 0 c-26 0 -32 -6 -49 -52 -11 -29 -26 -72 -33 -96 -7 -23
-16 -39 -21 -34 -4 4 -21 46 -36 93 -27 80 -30 84 -60 87 l-32 3 0 -125z"/>
<path d="M2980 805 c0 -118 1 -125 20 -125 18 0 20 8 22 92 l3 93 55 -92 c48
-80 59 -92 83 -93 l27 0 0 125 0 125 -25 0 c-24 0 -24 -2 -27 -87 l-3 -88 -54
88 c-43 70 -58 87 -77 87 -24 0 -24 0 -24 -125z"/>
<path d="M3240 805 c0 -118 1 -125 20 -125 19 0 20 7 20 125 0 118 -1 125 -20
125 -19 0 -20 -7 -20 -125z"/>
<path d="M3342 826 c3 -117 15 -141 74 -152 40 -7 69 1 94 29 17 18 20 35 20
124 0 96 -1 103 -20 103 -19 0 -20 -7 -20 -92 -1 -102 -11 -128 -52 -128 -41
0 -48 17 -48 122 l0 98 -26 0 -26 0 4 -104z"/>
<path d="M3590 806 c0 -119 1 -126 20 -126 18 0 20 8 22 93 l3 92 34 -93 c45
-123 60 -123 107 3 l33 90 0 -92 c1 -86 2 -93 21 -93 19 0 20 7 20 125 l0 125
-29 0 c-28 0 -31 -4 -61 -96 -18 -52 -35 -92 -38 -89 -4 3 -21 45 -38 93 -29
82 -33 87 -63 90 l-31 3 0 -125z"/>
</g>
</svg>
